Coordinates
version=1
nRows=10
nColumns=22
inDegrees=yes

Units are S.I. units (second, meters, Newtons, ...)
If the header above contains a line with 'inDegrees', this indicates whether rotational values are in degrees (yes) or radians (no).

endheader
time	pelvis_tilt	pelvis_list	pelvis_rotation	pelvis_tx	pelvis_ty	pelvis_tz	hip_flexion_r	hip_adduction_r	hip_rotation_r	knee_angle_r	ankle_angle_r	subtalar_angle_r	hip_flexion_l	hip_adduction_l	hip_rotation_l	knee_angle_l	ankle_angle_l	subtalar_angle_l	lumbar_extension	lumbar_bending	lumbar_rotation
      5.45000000	      4.79801623	      0.80780654	    306.29662669	     -0.43418415	      1.06891933	      0.73116683	     22.03299262	     -9.06383986	      7.58441495	    -60.13832552	      6.83504248	      1.82152809	     -3.28825774	     15.75151023	     11.78526588	     -8.47169268	      7.94494108	    -14.45788710	     -4.97312022	     -6.88585027	     -6.38927044
      5.46000000	      4.67225960	      0.78517741	    307.54493003	     -0.42941945	      1.06910651	      0.73601825	     22.58485644	     -9.02862170	      7.57823262	    -58.88641132	      7.36635986	      1.33454263	     -3.83325663	     15.53205516	     13.06030612	     -8.53855103	      8.09455349	    -14.54992298	     -4.98463368	     -6.72270632	     -6.66243250
      5.47000000	      4.53479276	      0.74326802	    308.76627794	     -0.42472941	      1.06926901	      0.74085437	     23.07392791	     -8.96795394	      7.52247903	    -57.50652332	      7.87811277	      0.93973683	     -4.34870872	     15.27876170	     14.29512751	     -8.64541552	      8.24964571	    -14.64214328	     -4.99851386	     -6.54348890	     -6.91744973
      5.48000000	      4.35309338	      0.72225709	    309.96011738	     -0.42011560	      1.06931924	      0.74565926	     23.56315517	     -8.87966153	      7.42173238	    -56.01226539	      8.34686461	      0.74820246	     -4.75951404	     14.99859722	     15.47009712	     -8.82474746	      8.45533357	    -14.69961981	     -4.95347356	     -6.34820730	     -7.15939765
      5.49000000	      4.24839249	      0.60761431	    311.09926588	     -0.41552665	      1.06950629	      0.75056676	     23.85037883	     -8.78327599	      7.27261300	    -54.37097913	      8.82437779	      0.38063153	     -5.30408912	     14.70215574	     16.61883930	     -8.96754298	      8.67014821	    -14.77652892	     -5.02781849	     -6.16078225	     -7.34483693
      5.50000000	      4.08776011	      0.52175369	    312.19170772	     -0.41100488	      1.06955487	      0.75548575	     24.14909812	     -8.63957690	      7.10577893	    -52.61483440	      9.24193492	      0.20546604	     -5.72519617	     14.37936737	     17.67496020	     -9.18380488	      8.93350133	    -14.81746854	     -5.02280907	     -5.94909921	     -7.52599113
      5.51000000	      3.92286121	      0.43483202	    313.22972236	     -0.40649796	      1.06954032	      0.76046106	     24.39645550	     -8.48257845	      6.89923317	    -50.74067570	      9.58987092	      0.13923457	     -6.11192779	     14.05068671	     18.66087915	     -9.42721828	      9.23033785	    -14.84898555	     -4.99770417	     -5.73912076	     -7.65362609
      5.52000000	      3.75423957	      0.34138166	    314.20242819	     -0.40202059	      1.06946720	      0.76552326	     24.58680721	     -8.29057604	      6.68966587	    -48.75168564	      9.86180728	      0.17526946	     -6.47429906	     13.71248848	     19.56922018	     -9.68609407	      9.54542511	    -14.88130479	     -4.95824251	     -5.52643998	     -7.75010670
      5.53000000	      3.57998342	      0.25237970	    315.11136817	     -0.39755754	      1.06931438	      0.77066919	     24.73540899	     -8.07616010	      6.46546308	    -46.65822040	     10.04197671	      0.33395762	     -6.80709076	     13.37283386	     20.39952583	     -9.95519200	      9.87305330	    -14.91998582	     -4.89546905	     -5.31962030	     -7.79869172
      5.54000000	      3.36738589	      0.19516833	    315.94976410	     -0.39313607	      1.06900970	      0.77589082	     24.89657470	     -7.82815849	      6.24129128	    -44.47306502	     10.10487042	      0.56973398	     -7.05399842	     13.03349416	     21.12706711	    -10.25362440	     10.22172076	    -14.96609263	     -4.76391389	     -5.11564479	     -7.80668874
